<?xml version="1.0" encoding="UTF-8"?>
<svg width="800px" height="156px" viewBox="0 0 800 156" version="1.1" xmlns="http://www.w3.org/2000/svg" xmlns:xlink="http://www.w3.org/1999/xlink">
    <g stroke="none" stroke-width="1" fill="none" fill-rule="evenodd">
        <g fill="#FFFFFF" fill-rule="nonzero">
            <path d="M108.5,0 C167.6,0 215.9,33.3 215.9,74.3 C215.9,115.3 167.6,148.5 108.5,148.5 C49.4,148.5 1,115.3 1,74.3 C1,33.3 49.4,0 108.5,0 Z M108.5,27.5 C65.3,27.5 30.4,48.3 30.4,74.3 C30.4,100.2 65.3,121 108.5,121 C151.7,121 186.5,100.2 186.5,74.3 C186.5,48.3 151.7,27.5 108.5,27.5 Z M325.9,32.7 C336.8,32.7 347.6,34.5 357.4,38.1 C367.2,41.7 375.1,46.8 381.3,53.5 C387.4,60.2 390.5,67.8 390.5,76.4 C390.5,85 387.4,92.6 381.3,99.3 C375.1,106 367.2,111.1 357.4,114.7 C347.6,118.3 336.8,120.1 325.9,120.1 L287.8,120.1 L287.8,147.6 L258.4,147.6 L258.4,32.7 L325.9,32.7 Z M324.5,94.6 C335.5,94.6 344.1,92.7 350.3,89 C356.5,85.3 359.6,81.1 359.6,76.4 C359.6,71.7 356.5,67.5 350.3,63.8 C344.1,60.1 335.5,58.2 324.5,58.2 L287.8,58.2 L287.8,94.6 L324.5,94.6 Z M477.8,32.7 L477.8,147.6 L448.4,147.6 L448.4,32.7 L477.8,32.7 Z M588.4,32.7 L588.4,58.2 L540.1,58.2 L540.1,78.3 L583.4,78.3 L583.4,103.8 L540.1,103.8 L540.1,122.1 L588.4,122.1 L588.4,147.6 L510.7,147.6 L510.7,32.7 L588.4,32.7 Z M691.4,120.1 L691.4,147.6 L622.9,147.6 L622.9,32.7 L651.4,32.7 L651.4,120.1 L691.4,120.1 Z M770.6,32.7 L799,32.7 L799,147.6 L770.6,147.6 L770.6,97.5 L725.6,97.5 L725.6,147.6 L697.1,147.6 L697.1,32.7 L725.6,32.7 L725.6,72.9 L770.6,72.9 L770.6,32.7 Z"></path>
        </g>
    </g>
</svg>